<svg width="36" height="53" viewBox="0 0 36 53" fill="none" xmlns="http://www.w3.org/2000/svg">
<path d="M34.6823 31.6684C33.8643 30.8388 32.7058 30.3631 31.4979 30.3631C30.2901 30.3631 29.1316 30.8388 28.3191 31.6628L22.5048 37.5142V4.53511C22.5048 2.03527 20.4844 0 18.0027 0C15.5211 0 13.5007 2.03527 13.5007 4.53511V37.5142L7.68644 31.6684C6.86839 30.8388 5.70993 30.3631 4.50206 30.3631C3.29419 30.3631 2.13573 30.8388 1.32866 31.6628C0.472167 32.5201 0 33.6594 0 34.8651C0 36.0708 0.472167 37.2101 1.32317 38.0673L14.8184 51.6616C15.038 51.8883 15.2741 52.0819 15.5321 52.2534C15.7517 52.3972 15.9878 52.5188 16.1855 52.6073C16.2239 52.6239 16.2678 52.646 16.3007 52.6571C16.438 52.7179 16.5533 52.7567 16.6851 52.7954L16.8882 52.8562C17.0804 52.9005 17.2945 52.9502 17.5086 52.9668C17.6623 52.9834 17.8325 52.9945 18.0027 52.9945C18.1729 52.9945 18.3431 52.9834 18.4584 52.9723C18.7275 52.9502 18.9581 52.9004 19.1447 52.8507L19.3204 52.7954C19.4467 52.7567 19.5675 52.7179 19.6993 52.6571L19.7761 52.6239C20.0232 52.5188 20.2593 52.3916 20.4954 52.2368C20.7314 52.0819 20.951 51.8939 21.1871 51.6616L34.6823 38.0673C35.5333 37.2045 36.0055 36.0708 36.0055 34.8651C36.0055 33.6594 35.5278 32.5256 34.6823 31.6684Z" fill="#077CA0"/>
</svg>
