<svg width="252" height="47" viewBox="0 0 252 47" fill="none" xmlns="http://www.w3.org/2000/svg">
<rect width="252" height="47" rx="5" fill="#077CA0"/>
<path d="M105.736 14.464H103.144L101.104 31H104.176L105.472 19.984L109.816 29.128H112.264L116.584 19.984L117.856 31H120.928L118.912 14.464H116.272L111.016 25.648L105.736 14.464ZM132.114 25.36C132.114 27.16 130.842 28.36 129.186 28.36C127.53 28.36 126.258 27.16 126.258 25.36C126.258 23.632 127.53 22.432 129.186 22.432C130.842 22.432 132.114 23.632 132.114 25.36ZM133.314 29.584C134.442 28.504 135.018 27.088 135.018 25.36C135.018 23.632 134.442 22.24 133.314 21.16C132.186 20.08 130.818 19.552 129.186 19.552C127.554 19.552 126.162 20.08 125.034 21.16C123.906 22.24 123.354 23.632 123.354 25.36C123.354 27.088 123.906 28.504 125.034 29.584C126.162 30.664 127.554 31.216 129.186 31.216C130.818 31.216 132.186 30.664 133.314 29.584ZM141.052 27.04C141.052 23.872 141.988 22.288 143.86 22.288C144.532 22.288 145.108 22.384 145.564 22.6L146.068 19.96C145.564 19.696 144.94 19.552 144.22 19.552C142.852 19.552 141.604 20.512 141.052 22.432V19.792H138.124V31H141.052V27.04ZM159.037 25.36C159.037 23.632 158.485 22.24 157.405 21.16C156.325 20.08 154.981 19.552 153.349 19.552C151.717 19.552 150.349 20.08 149.221 21.16C148.093 22.24 147.541 23.632 147.541 25.36C147.541 27.088 148.093 28.504 149.221 29.608C150.349 30.688 151.717 31.24 153.349 31.24C155.581 31.24 157.621 30.352 158.581 28.528L156.349 27.328C155.845 28.264 154.717 28.768 153.541 28.768C151.885 28.768 150.637 27.832 150.445 26.368H158.989C159.013 26.008 159.037 25.672 159.037 25.36ZM150.421 24.376C150.637 22.912 151.813 22 153.373 22C154.837 22 155.965 22.864 156.181 24.376H150.421Z" fill="white"/>
<path d="M64.0607 24.0607C64.6464 23.4749 64.6464 22.5251 64.0607 21.9393L54.5147 12.3934C53.9289 11.8076 52.9792 11.8076 52.3934 12.3934C51.8076 12.9792 51.8076 13.9289 52.3934 14.5147L60.8787 23L52.3934 31.4853C51.8076 32.0711 51.8076 33.0208 52.3934 33.6066C52.9792 34.1924 53.9289 34.1924 54.5147 33.6066L64.0607 24.0607ZM31 24.5H63V21.5H31V24.5Z" fill="white"/>
</svg>
