<svg width="252" height="47" viewBox="0 0 252 47" fill="none" xmlns="http://www.w3.org/2000/svg">
<rect width="252" height="47" rx="5" fill="#077CA0"/>
<path d="M84.528 31V28.264H77.112V24.208H83.4V21.496H77.112V17.2H84.288V14.464H74.064V31H84.528ZM86.3824 31H89.7904L92.4544 27.256L95.0944 31H98.5024L94.1104 24.904L97.7824 19.792H94.3504L92.4784 22.552L90.5584 19.792H87.1264L90.7984 24.904L86.3824 31ZM100.819 19.792V36.448H103.747V29.512C104.323 30.592 105.739 31.24 107.251 31.24C108.763 31.24 110.059 30.712 111.115 29.632C112.195 28.552 112.723 27.136 112.723 25.384C112.723 23.68 112.195 22.264 111.115 21.184C110.035 20.104 108.763 19.552 107.251 19.552C105.739 19.552 104.323 20.224 103.747 21.304V19.792H100.819ZM103.795 25.432C103.795 23.608 105.115 22.36 106.771 22.36C107.587 22.36 108.283 22.648 108.859 23.224C109.435 23.8 109.723 24.544 109.723 25.432C109.723 27.232 108.427 28.456 106.771 28.456C105.139 28.456 103.795 27.28 103.795 25.432ZM118.758 31V13.696H115.83V31H118.758ZM130.609 25.36C130.609 27.16 129.337 28.36 127.681 28.36C126.025 28.36 124.753 27.16 124.753 25.36C124.753 23.632 126.025 22.432 127.681 22.432C129.337 22.432 130.609 23.632 130.609 25.36ZM131.809 29.584C132.937 28.504 133.513 27.088 133.513 25.36C133.513 23.632 132.937 22.24 131.809 21.16C130.681 20.08 129.313 19.552 127.681 19.552C126.049 19.552 124.657 20.08 123.529 21.16C122.401 22.24 121.849 23.632 121.849 25.36C121.849 27.088 122.401 28.504 123.529 29.584C124.657 30.664 126.049 31.216 127.681 31.216C129.313 31.216 130.681 30.664 131.809 29.584ZM139.547 27.04C139.547 23.872 140.483 22.288 142.355 22.288C143.027 22.288 143.603 22.384 144.059 22.6L144.563 19.96C144.059 19.696 143.435 19.552 142.715 19.552C141.347 19.552 140.099 20.512 139.547 22.432V19.792H136.619V31H139.547V27.04ZM157.531 25.36C157.531 23.632 156.979 22.24 155.899 21.16C154.819 20.08 153.475 19.552 151.843 19.552C150.211 19.552 148.843 20.08 147.715 21.16C146.587 22.24 146.035 23.632 146.035 25.36C146.035 27.088 146.587 28.504 147.715 29.608C148.843 30.688 150.211 31.24 151.843 31.24C154.075 31.24 156.115 30.352 157.075 28.528L154.843 27.328C154.339 28.264 153.211 28.768 152.035 28.768C150.379 28.768 149.131 27.832 148.939 26.368H157.483C157.507 26.008 157.531 25.672 157.531 25.36ZM148.915 24.376C149.131 22.912 150.307 22 151.867 22C153.331 22 154.459 22.864 154.675 24.376H148.915Z" fill="white"/>
<path d="M49.0607 24.0607C49.6464 23.4749 49.6464 22.5251 49.0607 21.9393L39.5147 12.3934C38.9289 11.8076 37.9792 11.8076 37.3934 12.3934C36.8076 12.9792 36.8076 13.9289 37.3934 14.5147L45.8787 23L37.3934 31.4853C36.8076 32.0711 36.8076 33.0208 37.3934 33.6066C37.9792 34.1924 38.9289 34.1924 39.5147 33.6066L49.0607 24.0607ZM16 24.5H48V21.5H16V24.5Z" fill="white"/>
</svg>
