<svg width="252" height="47" viewBox="0 0 252 47" fill="none" xmlns="http://www.w3.org/2000/svg">
<rect width="252" height="47" rx="5" fill="#78B521"/>
<path d="M108.528 31V28.264H101.112V24.208H107.4V21.496H101.112V17.2H108.288V14.464H98.064V31H108.528ZM110.382 31H113.79L116.454 27.256L119.094 31H122.502L118.11 24.904L121.782 19.792H118.35L116.478 22.552L114.558 19.792H111.126L114.798 24.904L110.382 31ZM124.819 19.792V36.448H127.747V29.512C128.323 30.592 129.739 31.24 131.251 31.24C132.763 31.24 134.059 30.712 135.115 29.632C136.195 28.552 136.723 27.136 136.723 25.384C136.723 23.68 136.195 22.264 135.115 21.184C134.035 20.104 132.763 19.552 131.251 19.552C129.739 19.552 128.323 20.224 127.747 21.304V19.792H124.819ZM127.795 25.432C127.795 23.608 129.115 22.36 130.771 22.36C131.587 22.36 132.283 22.648 132.859 23.224C133.435 23.8 133.723 24.544 133.723 25.432C133.723 27.232 132.427 28.456 130.771 28.456C129.139 28.456 127.795 27.28 127.795 25.432ZM142.758 31V13.696H139.83V31H142.758ZM154.609 25.36C154.609 27.16 153.337 28.36 151.681 28.36C150.025 28.36 148.753 27.16 148.753 25.36C148.753 23.632 150.025 22.432 151.681 22.432C153.337 22.432 154.609 23.632 154.609 25.36ZM155.809 29.584C156.937 28.504 157.513 27.088 157.513 25.36C157.513 23.632 156.937 22.24 155.809 21.16C154.681 20.08 153.313 19.552 151.681 19.552C150.049 19.552 148.657 20.08 147.529 21.16C146.401 22.24 145.849 23.632 145.849 25.36C145.849 27.088 146.401 28.504 147.529 29.584C148.657 30.664 150.049 31.216 151.681 31.216C153.313 31.216 154.681 30.664 155.809 29.584ZM163.547 27.04C163.547 23.872 164.483 22.288 166.355 22.288C167.027 22.288 167.603 22.384 168.059 22.6L168.563 19.96C168.059 19.696 167.435 19.552 166.715 19.552C165.347 19.552 164.099 20.512 163.547 22.432V19.792H160.619V31H163.547V27.04ZM181.531 25.36C181.531 23.632 180.979 22.24 179.899 21.16C178.819 20.08 177.475 19.552 175.843 19.552C174.211 19.552 172.843 20.08 171.715 21.16C170.587 22.24 170.035 23.632 170.035 25.36C170.035 27.088 170.587 28.504 171.715 29.608C172.843 30.688 174.211 31.24 175.843 31.24C178.075 31.24 180.115 30.352 181.075 28.528L178.843 27.328C178.339 28.264 177.211 28.768 176.035 28.768C174.379 28.768 173.131 27.832 172.939 26.368H181.483C181.507 26.008 181.531 25.672 181.531 25.36ZM172.915 24.376C173.131 22.912 174.307 22 175.867 22C177.331 22 178.459 22.864 178.675 24.376H172.915Z" fill="white"/>
<path d="M57.0607 24.0607C57.6464 23.4749 57.6464 22.5251 57.0607 21.9393L47.5147 12.3934C46.9289 11.8076 45.9792 11.8076 45.3934 12.3934C44.8076 12.9792 44.8076 13.9289 45.3934 14.5147L53.8787 23L45.3934 31.4853C44.8076 32.0711 44.8076 33.0208 45.3934 33.6066C45.9792 34.1924 46.9289 34.1924 47.5147 33.6066L57.0607 24.0607ZM24 24.5H56V21.5H24V24.5Z" fill="white"/>
</svg>
