<svg width="30" height="25" viewBox="0 0 30 25" fill="none" xmlns="http://www.w3.org/2000/svg">
<path d="M0 2C0 0.895431 0.895431 0 2 0H18C19.1046 0 20 0.895431 20 2C20 3.10457 19.1046 4 18 4H2C0.895431 4 0 3.10457 0 2Z" fill="#2F2E2E"/>
<path d="M0 9C0 7.89543 0.895431 7 2 7H28C29.1046 7 30 7.89543 30 9C30 10.1046 29.1046 11 28 11H2C0.89543 11 0 10.1046 0 9Z" fill="#2F2E2E"/>
<path d="M0 16C0 14.8954 0.895431 14 2 14H18C19.1046 14 20 14.8954 20 16C20 17.1046 19.1046 18 18 18H2C0.895431 18 0 17.1046 0 16Z" fill="#2F2E2E"/>
<path d="M0 23C0 21.8954 0.895431 21 2 21H25C26.1046 21 27 21.8954 27 23C27 24.1046 26.1046 25 25 25H2C0.895431 25 0 24.1046 0 23Z" fill="#2F2E2E"/>
</svg>
