<svg width="225" height="90" viewBox="0 0 225 90" fill="none" xmlns="http://www.w3.org/2000/svg">
<path d="M23.2336 60.4994C21.1754 54.9556 18.8409 49.5332 15.8731 44.4146C12.9188 39.3229 9.47264 34.599 4.94515 30.7592C3.78296 29.7706 2.48602 28.9742 1.01392 28.1476C2.23674 27.7562 3.37535 28.0126 4.45669 27.7697C7.46828 27.0982 10.3182 26.2007 12.3461 23.6194C13.7711 21.8041 13.9867 19.7593 13.7913 17.5964C13.3331 12.5419 10.8807 8.45574 7.54576 4.81161C5.97259 3.08739 4.28152 1.48465 2.43212 0C3.37535 0.448768 4.33879 0.860421 5.25844 1.35305C10.4799 4.15026 14.9905 7.81464 18.7163 12.444C21.9839 16.5032 24.416 21.0179 26.2924 25.87C27.4142 28.7752 28.1351 31.7816 28.9536 34.7677C29.085 35.2638 28.7886 35.6349 28.573 36.0162C25.5041 41.4689 23.9444 47.3265 23.5806 53.5688C23.4593 55.6473 23.7491 57.692 23.6278 59.7537C23.557 60.0337 23.6615 60.4117 23.2336 60.4994Z" fill="#077CA0"/>
<path d="M1.318e-05 18.0687C0.00675051 14.6776 2.57704 12.0896 5.93897 12.0896C9.20658 12.0896 12.0194 14.8632 12.0396 18.1058C12.0598 21.3282 9.19311 24.1794 5.94908 24.1625C2.57031 24.149 -0.00672415 21.507 1.318e-05 18.0687Z" fill="#077CA0"/>
<path d="M23.3921 59.7604C23.2506 57.0442 23.19 54.3347 23.4493 51.6185C24.0153 45.6427 25.8108 40.0821 28.8864 34.9364C28.9167 34.8858 28.9335 34.8284 28.9571 34.7745C33.616 27.3715 39.8009 21.6218 47.5993 17.6133C46.8852 18.2105 46.1542 18.7875 45.4636 19.4117C41.758 22.7522 38.8037 26.5853 37.6954 31.5825C36.604 36.502 38.541 39.8492 43.2908 41.4655C44.1767 41.7658 45.0661 41.9682 45.9722 42.11C46.8751 42.2517 47.7981 42.2719 48.94 42.363C46.1845 43.4428 44.0117 45.0286 42.068 46.9418C38.9688 49.9921 36.6613 53.5957 34.7074 57.4592C31.5678 63.661 29.4725 70.2204 27.9263 77.1645C25.5952 71.9412 24.3286 66.5931 23.5268 61.1101C23.3247 60.6681 23.5673 60.1957 23.3921 59.7604Z" fill="#78B521"/>
<path d="M44.6416 38.7494C41.6165 38.7528 39.2281 36.3672 39.2585 33.3675C39.2888 30.3881 41.5828 28.097 44.554 28.0768C47.5993 28.0565 49.8967 30.3982 49.9944 33.4114C50.082 36.239 47.1647 39.0362 44.6416 38.7494Z" fill="#78B521"/>
<path d="M86.0391 42.5283V77.4884H75.2257V60.5634L67.8315 70.3857L60.289 60.4116V77.4884H49.4756V42.5283H60.289V42.5789H60.3395L67.7843 52.3506L75.229 42.6295V42.5283H86.0391Z" fill="#077CA0"/>
<path d="M111.436 72.9028H100.322L98.7121 77.539L87.2451 77.4884L99.3656 42.5283H112.342L124.462 77.4884H113.046L111.436 72.9028ZM108.319 63.9882L105.854 56.8855L103.388 63.9882H108.319Z" fill="#077CA0"/>
<path d="M148.454 77.4884H126.527V42.5283H137.341V66.6066H148.454V77.4884Z" fill="#077CA0"/>
<path d="M162.333 52.0975V55.3705H176.414V64.1367H162.333V67.6121H176.717V77.485H151.472V42.5283H176.666V52.1009H162.333V52.0975Z" fill="#077CA0"/>
<path d="M197.286 66.556H209.807V77.4884H178.425L192.307 53.3595H179.786V42.5283H211.219L197.286 66.556Z" fill="#077CA0"/>
<path d="M224.094 77.4884H213.23V42.5283H224.094V77.4884Z" fill="#077CA0"/>
<path d="M49.9674 82.0334H54.4242V83.0356H51.0925V85.438H54.313V86.4469H51.0925V88.8932H54.532V89.8953H49.9674V82.0334Z" fill="#78B521"/>
<path d="M61.9868 82.0334H63.0379V89.9088H61.906V83.7813L59.4873 86.8248H59.2784L56.8328 83.7813V89.9088H55.7076V82.0334H56.7721L59.3862 85.2693L61.9868 82.0334Z" fill="#78B521"/>
<path d="M64.6716 89.9089V82.02H67.1644C67.9157 82.02 68.5119 82.2225 68.9599 82.6274C69.408 83.0323 69.6303 83.5789 69.6303 84.2639C69.6303 84.7227 69.5158 85.1277 69.2867 85.4819C69.0576 85.8362 68.7444 86.0927 68.3468 86.2513C67.9493 86.4098 67.38 86.4908 66.6356 86.4908H65.8035V89.9089H64.6716ZM66.9691 83.0255H65.8035V85.4887H67.0364C67.4946 85.4887 67.8483 85.3807 68.0942 85.1648C68.3401 84.9488 68.4648 84.6384 68.4648 84.2369C68.4648 83.4304 67.9662 83.0255 66.9691 83.0255Z" fill="#78B521"/>
<path d="M74.4677 81.9221C75.6838 81.9221 76.6944 82.3068 77.5029 83.0795C78.3114 83.8488 78.7156 84.8172 78.7156 85.9779C78.7156 87.1386 78.308 88.1003 77.4928 88.8629C76.6776 89.6254 75.6501 90.0033 74.4071 90.0033C73.2213 90.0033 72.2343 89.622 71.446 88.8629C70.6578 88.1003 70.2603 87.1488 70.2603 86.0015C70.2603 84.8239 70.6578 83.8522 71.4528 83.0795C72.2478 82.3068 73.255 81.9221 74.4677 81.9221ZM74.5149 82.9917C73.6154 82.9917 72.8743 83.2752 72.2949 83.8387C71.7155 84.4022 71.4258 85.1209 71.4258 85.9982C71.4258 86.8485 71.7155 87.5537 72.2983 88.1172C72.8811 88.6806 73.6053 88.9641 74.4812 88.9641C75.357 88.9641 76.0914 88.6773 76.6776 88.1003C77.2637 87.5267 77.5568 86.808 77.5568 85.9509C77.5568 85.1175 77.2637 84.4157 76.6776 83.8454C76.088 83.2752 75.3671 82.9917 74.5149 82.9917Z" fill="#78B521"/>
<path d="M89.6571 82.0334H90.7789L87.5989 89.9459H87.3529L84.7826 83.5417L82.1854 89.9459H81.9429L78.7729 82.0334H79.9082L82.0742 87.4625L84.2571 82.0334H85.3216L87.5146 87.4625L89.6571 82.0334Z" fill="#78B521"/>
<path d="M91.6512 82.0334H96.108V83.0356H92.7764V85.438H95.9968V86.4469H92.7764V88.8932H96.2158V89.8953H91.6512V82.0334Z" fill="#78B521"/>
<path d="M97.4487 89.9088V82.0334H99.4194C100.214 82.0334 100.848 82.2292 101.313 82.6239C101.781 83.0187 102.013 83.5518 102.013 84.2267C102.013 84.6856 101.899 85.0803 101.67 85.4178C101.441 85.7518 101.114 86.0015 100.686 86.1668C100.939 86.3322 101.185 86.5582 101.424 86.8417C101.663 87.1285 102.003 87.6245 102.438 88.3365C102.711 88.7852 102.93 89.1193 103.098 89.3453L103.516 89.9088H102.175L101.831 89.3892C101.821 89.369 101.798 89.3386 101.764 89.2947L101.545 88.9843L101.198 88.4073L100.821 87.7932C100.588 87.4693 100.376 87.2128 100.181 87.0205C99.9887 86.8282 99.8135 86.6898 99.6552 86.6055C99.4969 86.5211 99.2375 86.4773 98.8703 86.4773H98.5772V89.9055H97.4487V89.9088ZM98.9141 82.9917H98.5772V85.4785H99.0051C99.5744 85.4785 99.9651 85.4313 100.177 85.3334C100.39 85.2356 100.555 85.0871 100.673 84.8914C100.79 84.6957 100.851 84.4696 100.851 84.2166C100.851 83.9669 100.787 83.7442 100.656 83.5417C100.524 83.3393 100.339 83.1975 100.1 83.1166C99.8607 83.0356 99.4632 82.9917 98.9141 82.9917Z" fill="#78B521"/>
<path d="M104.392 82.0334H105.517V89.9088H104.392V82.0334Z" fill="#78B521"/>
<path d="M113.511 82.0334H114.578V89.9088H113.612L108.353 83.842V89.9088H107.295V82.0334H108.208L113.511 88.1509V82.0334Z" fill="#78B521"/>
<path d="M120.511 86.032H123.152V89.3691C122.185 89.7908 121.221 90 120.268 90C118.964 90 117.927 89.6188 117.145 88.8596C116.364 88.1004 115.976 87.159 115.976 86.0421C115.976 84.8645 116.381 83.886 117.186 83.1032C117.991 82.3204 119.005 81.929 120.221 81.929C120.662 81.929 121.083 81.9762 121.481 82.074C121.878 82.1685 122.38 82.344 122.99 82.6004V83.751C122.05 83.2044 121.12 82.9345 120.197 82.9345C119.338 82.9345 118.614 83.228 118.025 83.8151C117.435 84.4022 117.142 85.1209 117.142 85.9746C117.142 86.8688 117.435 87.601 118.025 88.1678C118.614 88.7347 119.372 89.0182 120.298 89.0182C120.75 89.0182 121.289 88.9135 121.915 88.7077L122.023 88.674V87.0341H120.507V86.032H120.511Z" fill="#78B521"/>
<path d="M125.887 82.0234H132.456V83.0256H129.714V89.9089H128.582V83.0256H125.887V82.0234Z" fill="#78B521"/>
<path d="M139.065 82.0334H140.19V89.9088H139.065V86.4806H134.646V89.9088H133.52V82.0334H134.646V85.438H139.065V82.0334Z" fill="#78B521"/>
<path d="M145.782 81.9221C146.999 81.9221 148.009 82.3068 148.818 83.0795C149.626 83.8488 150.03 84.8172 150.03 85.9779C150.03 87.1386 149.623 88.1003 148.807 88.8629C147.992 89.6254 146.965 90.0033 145.722 90.0033C144.536 90.0033 143.549 89.622 142.761 88.8629C141.972 88.1003 141.575 87.1488 141.575 86.0015C141.575 84.8239 141.972 83.8522 142.767 83.0795C143.562 82.3068 144.57 81.9221 145.782 81.9221ZM145.83 82.9917C144.93 82.9917 144.189 83.2752 143.61 83.8387C143.03 84.4022 142.741 85.1209 142.741 85.9982C142.741 86.8485 143.03 87.5537 143.613 88.1172C144.196 88.6806 144.92 88.9641 145.796 88.9641C146.672 88.9641 147.406 88.6773 147.992 88.1003C148.578 87.5267 148.871 86.808 148.871 85.9509C148.871 85.1175 148.578 84.4157 147.992 83.8454C147.406 83.2752 146.685 82.9917 145.83 82.9917Z" fill="#78B521"/>
<path d="M153.365 86.6088L152.51 86.0891C151.974 85.7618 151.59 85.4379 151.364 85.1207C151.139 84.8036 151.024 84.4392 151.024 84.0241C151.024 83.4033 151.24 82.9005 151.667 82.5125C152.099 82.1245 152.654 81.9321 153.342 81.9321C153.999 81.9321 154.602 82.1177 155.147 82.4855V83.7643C154.581 83.2177 153.972 82.9444 153.318 82.9444C152.951 82.9444 152.648 83.0287 152.412 83.2008C152.176 83.3729 152.058 83.5889 152.058 83.8554C152.058 84.0916 152.146 84.3109 152.321 84.5168C152.496 84.7226 152.776 84.9385 153.16 85.1646L154.019 85.6741C154.979 86.2477 155.457 86.9799 155.457 87.8673C155.457 88.4983 155.245 89.0112 154.824 89.406C154.403 89.8008 153.854 89.9965 153.177 89.9965C152.398 89.9965 151.691 89.7569 151.054 89.2778V87.8471C151.661 88.6198 152.365 89.0044 153.167 89.0044C153.52 89.0044 153.813 88.9066 154.049 88.7109C154.285 88.5152 154.399 88.2689 154.399 87.9719C154.399 87.4962 154.052 87.0407 153.365 86.6088Z" fill="#78B521"/>
<path d="M156.697 82.0334H161.154V83.0356H157.822V85.438H161.042V86.4469H157.822V88.8932H161.261V89.8953H156.697V82.0334Z" fill="#78B521"/>
<path d="M174.241 82.0334H175.363L172.183 89.9459H171.937L169.366 83.5417L166.769 89.9459H166.527L163.357 82.0334H164.492L166.658 87.4625L168.841 82.0334H169.905L172.098 87.4625L174.241 82.0334Z" fill="#78B521"/>
<path d="M181.78 82.0334H182.905V89.9088H181.78V86.4806H177.36V89.9088H176.235V82.0334H177.36V85.438H181.78V82.0334Z" fill="#78B521"/>
<path d="M188.497 81.9221C189.713 81.9221 190.724 82.3068 191.532 83.0795C192.341 83.8488 192.745 84.8172 192.745 85.9779C192.745 87.1386 192.337 88.1003 191.522 88.8629C190.707 89.6254 189.679 90.0033 188.436 90.0033C187.251 90.0033 186.264 89.622 185.475 88.8629C184.687 88.1003 184.29 87.1488 184.29 86.0015C184.29 84.8239 184.687 83.8522 185.482 83.0795C186.277 82.3068 187.284 81.9221 188.497 81.9221ZM188.544 82.9917C187.645 82.9917 186.904 83.2752 186.324 83.8387C185.745 84.4022 185.455 85.1209 185.455 85.9982C185.455 86.8485 185.745 87.5537 186.328 88.1172C186.91 88.6806 187.635 88.9641 188.51 88.9641C189.386 88.9641 190.121 88.6773 190.707 88.1003C191.293 87.5267 191.586 86.808 191.586 85.9509C191.586 85.1175 191.293 84.4157 190.707 83.8454C190.117 83.2752 189.396 82.9917 188.544 82.9917Z" fill="#78B521"/>
<path d="M204.111 88.0833V89.3251C203.286 89.7772 202.332 90.0033 201.251 90.0033C200.372 90.0033 199.627 89.8278 199.017 89.4735C198.404 89.1192 197.923 88.6333 197.566 88.0125C197.208 87.3916 197.03 86.7202 197.03 86.0015C197.03 84.8542 197.438 83.8892 198.253 83.1098C199.068 82.327 200.075 81.9355 201.271 81.9355C202.096 81.9355 203.013 82.1515 204.023 82.5834V83.7947C203.104 83.2684 202.204 83.0052 201.328 83.0052C200.429 83.0052 199.681 83.2886 199.085 83.8588C198.489 84.4291 198.192 85.141 198.192 85.9981C198.192 86.8619 198.485 87.5738 199.071 88.1306C199.657 88.6873 200.405 88.964 201.318 88.964C202.272 88.964 203.201 88.6705 204.111 88.0833Z" fill="#78B521"/>
<path d="M208.295 81.9897H209.086L212.613 89.9123H211.461L210.414 87.5774H207.058L206.075 89.9123H204.919L208.295 81.9897ZM209.949 86.5719L208.679 83.7173L207.503 86.5719H209.949Z" fill="#78B521"/>
<path d="M213.506 89.9088V82.0334H215.477C216.272 82.0334 216.905 82.2292 217.37 82.6239C217.835 83.0187 218.071 83.5518 218.071 84.2267C218.071 84.6856 217.956 85.0803 217.727 85.4178C217.498 85.7518 217.171 86.0015 216.743 86.1668C216.996 86.3322 217.242 86.5582 217.481 86.8417C217.72 87.1285 218.061 87.6245 218.495 88.3365C218.768 88.7852 218.987 89.1193 219.155 89.3453L219.573 89.9088H218.232L217.889 89.3892C217.879 89.369 217.855 89.3386 217.821 89.2947L217.602 88.9843L217.255 88.4073L216.878 87.7932C216.646 87.4693 216.433 87.2128 216.238 87.0205C216.046 86.8282 215.871 86.6898 215.713 86.6055C215.558 86.5211 215.295 86.4773 214.928 86.4773H214.635V89.9055H213.506V89.9088ZM214.968 82.9917H214.631V85.4785H215.059C215.628 85.4785 216.019 85.4313 216.231 85.3334C216.444 85.2356 216.609 85.0871 216.727 84.8914C216.844 84.6957 216.905 84.4696 216.905 84.2166C216.905 83.9669 216.838 83.7442 216.71 83.5417C216.582 83.3393 216.393 83.1975 216.154 83.1166C215.915 83.0322 215.521 82.9917 214.968 82.9917Z" fill="#78B521"/>
<path d="M220.435 82.0334H224.892V83.0356H221.561V85.438H224.781V86.4469H221.561V88.8932H225V89.8953H220.435V82.0334Z" fill="#78B521"/>
</svg>
